<svg width="121" height="121" viewBox="0 0 121 121" fill="none" xmlns="http://www.w3.org/2000/svg">
<circle cx="60" cy="61" r="60" fill="#D9D9D9"/>
<path d="M30.7051 31V71H21.0566V40.0234H20.8223L11.877 45.4922V37.1328L21.7402 31H30.7051ZM54.8604 71.5469C51.9437 71.5469 49.3525 71.0195 47.0869 69.9648C44.8213 68.9102 43.0309 67.4583 41.7158 65.6094C40.4137 63.7604 39.7367 61.638 39.6846 59.2422H49.0596C49.1377 60.7135 49.7367 61.8984 50.8564 62.7969C51.9762 63.6823 53.3109 64.125 54.8604 64.125C56.0713 64.125 57.1455 63.8581 58.083 63.3242C59.0205 62.7904 59.7562 62.0417 60.29 61.0781C60.8239 60.1016 61.0843 58.9818 61.0713 57.7187C61.0843 56.4297 60.8174 55.3034 60.2705 54.3398C59.7367 53.3763 58.9945 52.6276 58.0439 52.0938C57.1064 51.5469 56.0257 51.2734 54.8018 51.2734C53.6429 51.2604 52.5426 51.5143 51.501 52.0352C50.4723 52.556 49.6911 53.2656 49.1572 54.1641L40.6221 52.5625L42.3604 31H68.0244V38.793H50.3096L49.3916 48.2266H49.626C50.29 47.1198 51.3577 46.2083 52.8291 45.4922C54.3135 44.763 55.9997 44.3984 57.8877 44.3984C60.2835 44.3984 62.4189 44.9583 64.2939 46.0781C66.182 47.1849 67.6663 48.7214 68.7471 50.6875C69.8408 52.6536 70.3877 54.9062 70.3877 57.4453C70.3877 60.1927 69.7367 62.6276 68.4346 64.75C67.1455 66.8724 65.3356 68.5391 63.0049 69.75C60.6872 70.9479 57.9723 71.5469 54.8604 71.5469ZM92.2383 71.9766C88.7487 71.9766 85.7409 71.1497 83.2148 69.4961C80.6888 67.8294 78.7422 65.4401 77.375 62.3281C76.0078 59.2031 75.3307 55.4466 75.3437 51.0586C75.3568 46.6706 76.0404 42.9466 77.3945 39.8867C78.7617 36.8138 80.7018 34.4766 83.2148 32.875C85.7409 31.2604 88.7487 30.4531 92.2383 30.4531C95.7279 30.4531 98.7357 31.2604 101.262 32.875C103.801 34.4766 105.754 36.8138 107.121 39.8867C108.488 42.9596 109.165 46.6836 109.152 51.0586C109.152 55.4596 108.469 59.2227 107.102 62.3477C105.734 65.4727 103.788 67.862 101.262 69.5156C98.7487 71.1562 95.7409 71.9766 92.2383 71.9766ZM92.2383 64.0664C94.3216 64.0664 96.0078 63.0052 97.2969 60.8828C98.5859 58.7474 99.224 55.4727 99.2109 51.0586C99.2109 48.168 98.918 45.7852 98.332 43.9102C97.7461 42.0221 96.9323 40.6159 95.8906 39.6914C94.849 38.7669 93.6315 38.3047 92.2383 38.3047C90.168 38.3047 88.4948 39.3529 87.2188 41.4492C85.9427 43.5326 85.2982 46.7357 85.2852 51.0586C85.2721 53.9883 85.5521 56.4167 86.125 58.3437C86.7109 60.2708 87.5313 61.7096 88.5859 62.6602C89.6406 63.5977 90.8581 64.0664 92.2383 64.0664ZM26.6258 82.2727H31.6326L35.8797 92.6293H36.0758L40.3229 82.2727H45.3297V99H41.3929V88.7251H41.254L37.2356 98.8938H34.7199L30.7015 88.668H30.5626V99H26.6258V82.2727ZM47.8514 99V82.2727H59.5148V85.5561H51.8944V88.9865H58.9185V92.2781H51.8944V95.7166H59.5148V99H47.8514ZM73.024 87.7369C72.9314 87.3938 72.7953 87.0916 72.6156 86.8303C72.4359 86.5634 72.2154 86.3375 71.9541 86.1523C71.6927 85.9672 71.3932 85.8284 71.0556 85.7358C70.718 85.6378 70.3478 85.5888 69.9448 85.5888C69.1335 85.5888 68.4311 85.7848 67.8376 86.1768C67.2495 86.5689 66.7948 87.1406 66.4736 87.892C66.1523 88.638 65.9917 89.5446 65.9917 90.6119C65.9917 91.6845 66.1469 92.5993 66.4573 93.3562C66.7676 94.113 67.2168 94.6902 67.8049 95.0877C68.393 95.4852 69.1063 95.6839 69.9448 95.6839C70.6854 95.6839 71.3115 95.5642 71.8234 95.3246C72.3407 95.0795 72.7327 94.7338 72.9995 94.2873C73.2663 93.8408 73.3997 93.3153 73.3997 92.7109L74.1511 92.8008H70.0837V89.8523H77.2957V92.0657C77.2957 93.5631 76.9771 94.8454 76.3401 95.9126C75.7084 96.9799 74.8372 97.7994 73.7264 98.3711C72.6211 98.9428 71.3497 99.2287 69.9122 99.2287C68.3167 99.2287 66.9146 98.8829 65.7058 98.1914C64.497 97.4999 63.555 96.5143 62.8798 95.2347C62.2046 93.9497 61.8671 92.4251 61.8671 90.6609C61.8671 89.2887 62.0712 88.0717 62.4796 87.0099C62.888 85.9427 63.457 85.0388 64.1867 84.2983C64.9217 83.5578 65.7712 82.9969 66.735 82.6158C67.7042 82.2346 68.7469 82.044 69.8631 82.044C70.8324 82.044 71.7335 82.1829 72.5666 82.4606C73.4052 82.7383 74.1457 83.1303 74.7882 83.6367C75.4362 84.1431 75.9616 84.7448 76.3646 85.4418C76.7675 86.1387 77.018 86.9038 77.116 87.7369H73.024ZM82.7802 99H78.4351L84.0789 82.2727H89.4613L95.1052 99H90.76L86.8314 86.4872H86.7007L82.7802 99ZM82.2003 92.4169H91.2827V95.4879H82.2003V92.4169Z" fill="#002EFF"/>
</svg>
