<svg width="121" height="121" viewBox="0 0 121 121" fill="none" xmlns="http://www.w3.org/2000/svg">
<circle cx="60" cy="61" r="60" fill="#D9D9D9"/>
<path d="M26.4155 61V54.0469L41.0054 41.2734C42.0991 40.2839 43.0301 39.3789 43.7983 38.5586C44.5666 37.7253 45.1525 36.8919 45.5562 36.0586C45.9598 35.2122 46.1616 34.2943 46.1616 33.3047C46.1616 32.1979 45.9207 31.2539 45.439 30.4727C44.9572 29.6784 44.2931 29.0664 43.4468 28.6367C42.6004 28.207 41.6304 27.9922 40.5366 27.9922C39.4299 27.9922 38.4598 28.2201 37.6265 28.6758C36.7931 29.1185 36.1421 29.763 35.6733 30.6094C35.2176 31.4557 34.9897 32.4844 34.9897 33.6953H25.8296C25.8296 30.974 26.4416 28.6237 27.6655 26.6445C28.8895 24.6654 30.6082 23.1419 32.8218 22.0742C35.0483 20.9935 37.633 20.4531 40.5757 20.4531C43.6095 20.4531 46.2463 20.9609 48.4858 21.9766C50.7254 22.9922 52.4572 24.4115 53.6812 26.2344C54.9181 28.0443 55.5366 30.1471 55.5366 32.543C55.5366 34.0664 55.2306 35.5768 54.6187 37.0742C54.0067 38.5716 52.9064 40.2253 51.3179 42.0352C49.7424 43.8451 47.5028 46.013 44.5991 48.5391L39.814 52.9531V53.207H56.0249V61H26.4155ZM78.0317 61.9766C74.5422 61.9766 71.5343 61.1497 69.0083 59.4961C66.4823 57.8294 64.5356 55.4401 63.1685 52.3281C61.8013 49.2031 61.1242 45.4466 61.1372 41.0586C61.1502 36.6706 61.8338 32.9466 63.188 29.8867C64.5552 26.8138 66.4953 24.4766 69.0083 22.875C71.5343 21.2604 74.5422 20.4531 78.0317 20.4531C81.5213 20.4531 84.5291 21.2604 87.0552 22.875C89.5942 24.4766 91.5474 26.8138 92.9146 29.8867C94.2817 32.9596 94.9588 36.6836 94.9458 41.0586C94.9458 45.4596 94.2622 49.2227 92.895 52.3477C91.5278 55.4727 89.5812 57.862 87.0552 59.5156C84.5422 61.1562 81.5343 61.9766 78.0317 61.9766ZM78.0317 54.0664C80.1151 54.0664 81.8013 53.0052 83.0903 50.8828C84.3794 48.7474 85.0174 45.4727 85.0044 41.0586C85.0044 38.168 84.7114 35.7852 84.1255 33.9102C83.5396 32.0221 82.7257 30.6159 81.6841 29.6914C80.6424 28.7669 79.425 28.3047 78.0317 28.3047C75.9614 28.3047 74.2882 29.3529 73.0122 31.4492C71.7362 33.5326 71.0916 36.7357 71.0786 41.0586C71.0656 43.9883 71.3455 46.4167 71.9185 48.3437C72.5044 50.2708 73.3247 51.7096 74.3794 52.6602C75.4341 53.5977 76.6515 54.0664 78.0317 54.0664ZM26.6258 72.2727H31.6326L35.8797 82.6293H36.0758L40.3229 72.2727H45.3297V89H41.3929V78.7251H41.254L37.2356 88.8938H34.7199L30.7015 78.668H30.5626V89H26.6258V72.2727ZM47.8514 89V72.2727H59.5148V75.5561H51.8944V78.9865H58.9185V82.2781H51.8944V85.7166H59.5148V89H47.8514ZM73.024 77.7369C72.9314 77.3938 72.7953 77.0916 72.6156 76.8303C72.4359 76.5634 72.2154 76.3375 71.9541 76.1523C71.6927 75.9672 71.3932 75.8284 71.0556 75.7358C70.718 75.6378 70.3478 75.5888 69.9448 75.5888C69.1335 75.5888 68.4311 75.7848 67.8376 76.1768C67.2495 76.5689 66.7948 77.1406 66.4736 77.892C66.1523 78.638 65.9917 79.5446 65.9917 80.6119C65.9917 81.6845 66.1469 82.5993 66.4573 83.3562C66.7676 84.113 67.2168 84.6902 67.8049 85.0877C68.393 85.4852 69.1063 85.6839 69.9448 85.6839C70.6854 85.6839 71.3115 85.5642 71.8234 85.3246C72.3407 85.0795 72.7327 84.7338 72.9995 84.2873C73.2663 83.8408 73.3997 83.3153 73.3997 82.7109L74.1511 82.8008H70.0837V79.8523H77.2957V82.0657C77.2957 83.5631 76.9771 84.8454 76.3401 85.9126C75.7084 86.9799 74.8372 87.7994 73.7264 88.3711C72.6211 88.9428 71.3497 89.2287 69.9122 89.2287C68.3167 89.2287 66.9146 88.8829 65.7058 88.1914C64.497 87.4999 63.555 86.5143 62.8798 85.2347C62.2046 83.9497 61.8671 82.4251 61.8671 80.6609C61.8671 79.2887 62.0712 78.0717 62.4796 77.0099C62.888 75.9427 63.457 75.0388 64.1867 74.2983C64.9217 73.5578 65.7712 72.9969 66.735 72.6158C67.7042 72.2346 68.7469 72.044 69.8631 72.044C70.8324 72.044 71.7335 72.1829 72.5666 72.4606C73.4052 72.7383 74.1457 73.1303 74.7882 73.6367C75.4362 74.1431 75.9616 74.7448 76.3646 75.4418C76.7675 76.1387 77.018 76.9038 77.116 77.7369H73.024ZM82.7802 89H78.4351L84.0789 72.2727H89.4613L95.1052 89H90.76L86.8314 76.4872H86.7007L82.7802 89ZM82.2003 82.4169H91.2827V85.4879H82.2003V82.4169Z" fill="#002EFF"/>
</svg>
