<svg width="121" height="121" viewBox="0 0 121 121" fill="none" xmlns="http://www.w3.org/2000/svg">
<circle cx="60" cy="61" r="60" fill="#D9D9D9"/>
<path d="M4.50684 64.3594V56.8203L20.8936 31H27.5928V41.2344H23.7061L14.1162 56.4297V56.7422H37.8467V64.3594H4.50684ZM23.8232 71V62.0547L24.0186 58.7539V31H33.0615V71H23.8232ZM59.458 71.9766C55.9684 71.9766 52.9606 71.1497 50.4346 69.4961C47.9085 67.8294 45.9619 65.4401 44.5947 62.3281C43.2275 59.2031 42.5505 55.4466 42.5635 51.0586C42.5765 46.6706 43.2601 42.9466 44.6143 39.8867C45.9814 36.8138 47.9215 34.4766 50.4346 32.875C52.9606 31.2604 55.9684 30.4531 59.458 30.4531C62.9476 30.4531 65.9554 31.2604 68.4814 32.875C71.0205 34.4766 72.9736 36.8138 74.3408 39.8867C75.708 42.9596 76.3851 46.6836 76.3721 51.0586C76.3721 55.4596 75.6885 59.2227 74.3213 62.3477C72.9541 65.4727 71.0075 67.862 68.4814 69.5156C65.9684 71.1562 62.9606 71.9766 59.458 71.9766ZM59.458 64.0664C61.5413 64.0664 63.2275 63.0052 64.5166 60.8828C65.8057 58.7474 66.4437 55.4727 66.4307 51.0586C66.4307 48.168 66.1377 45.7852 65.5518 43.9102C64.9658 42.0221 64.152 40.6159 63.1104 39.6914C62.0687 38.7669 60.8512 38.3047 59.458 38.3047C57.3877 38.3047 55.7145 39.3529 54.4385 41.4492C53.1624 43.5326 52.5179 46.7357 52.5049 51.0586C52.4919 53.9883 52.7718 56.4167 53.3447 58.3437C53.9307 60.2708 54.751 61.7096 55.8057 62.6602C56.8604 63.5977 58.0778 64.0664 59.458 64.0664ZM98.4521 71.9766C94.9626 71.9766 91.9548 71.1497 89.4287 69.4961C86.9027 67.8294 84.9561 65.4401 83.5889 62.3281C82.2217 59.2031 81.5446 55.4466 81.5576 51.0586C81.5706 46.6706 82.2542 42.9466 83.6084 39.8867C84.9756 36.8138 86.9157 34.4766 89.4287 32.875C91.9548 31.2604 94.9626 30.4531 98.4521 30.4531C101.942 30.4531 104.95 31.2604 107.476 32.875C110.015 34.4766 111.968 36.8138 113.335 39.8867C114.702 42.9596 115.379 46.6836 115.366 51.0586C115.366 55.4596 114.683 59.2227 113.315 62.3477C111.948 65.4727 110.002 67.862 107.476 69.5156C104.963 71.1562 101.955 71.9766 98.4521 71.9766ZM98.4521 64.0664C100.535 64.0664 102.222 63.0052 103.511 60.8828C104.8 58.7474 105.438 55.4727 105.425 51.0586C105.425 48.168 105.132 45.7852 104.546 43.9102C103.96 42.0221 103.146 40.6159 102.104 39.6914C101.063 38.7669 99.8454 38.3047 98.4521 38.3047C96.3818 38.3047 94.7087 39.3529 93.4326 41.4492C92.1566 43.5326 91.512 46.7357 91.499 51.0586C91.486 53.9883 91.766 56.4167 92.3389 58.3437C92.9248 60.2708 93.7451 61.7096 94.7998 62.6602C95.8545 63.5977 97.0719 64.0664 98.4521 64.0664ZM26.1258 82.2727H31.1326L35.3797 92.6293H35.5758L39.8229 82.2727H44.8297V99H40.8929V88.7251H40.754L36.7356 98.8938H34.2199L30.2015 88.668H30.0626V99H26.1258V82.2727ZM47.3514 99V82.2727H59.0148V85.5561H51.3944V88.9865H58.4185V92.2781H51.3944V95.7166H59.0148V99H47.3514ZM72.524 87.7369C72.4314 87.3938 72.2953 87.0916 72.1156 86.8303C71.9359 86.5634 71.7154 86.3375 71.4541 86.1523C71.1927 85.9672 70.8932 85.8284 70.5556 85.7358C70.218 85.6378 69.8478 85.5888 69.4448 85.5888C68.6335 85.5888 67.9311 85.7848 67.3376 86.1768C66.7495 86.5689 66.2948 87.1406 65.9736 87.892C65.6523 88.638 65.4917 89.5446 65.4917 90.6119C65.4917 91.6845 65.6469 92.5993 65.9573 93.3562C66.2676 94.113 66.7168 94.6902 67.3049 95.0877C67.893 95.4852 68.6063 95.6839 69.4448 95.6839C70.1854 95.6839 70.8115 95.5642 71.3234 95.3246C71.8407 95.0795 72.2327 94.7338 72.4995 94.2873C72.7663 93.8408 72.8997 93.3153 72.8997 92.7109L73.6511 92.8008H69.5837V89.8523H76.7957V92.0657C76.7957 93.5631 76.4771 94.8454 75.8401 95.9126C75.2084 96.9799 74.3372 97.7994 73.2264 98.3711C72.1211 98.9428 70.8497 99.2287 69.4122 99.2287C67.8167 99.2287 66.4146 98.8829 65.2058 98.1914C63.997 97.4999 63.055 96.5143 62.3798 95.2347C61.7046 93.9497 61.3671 92.4251 61.3671 90.6609C61.3671 89.2887 61.5712 88.0717 61.9796 87.0099C62.388 85.9427 62.957 85.0388 63.6867 84.2983C64.4217 83.5578 65.2712 82.9969 66.235 82.6158C67.2042 82.2346 68.2469 82.044 69.3631 82.044C70.3324 82.044 71.2335 82.1829 72.0666 82.4606C72.9052 82.7383 73.6457 83.1303 74.2882 83.6367C74.9362 84.1431 75.4616 84.7448 75.8646 85.4418C76.2675 86.1387 76.518 86.9038 76.616 87.7369H72.524ZM82.2802 99H77.9351L83.5789 82.2727H88.9613L94.6052 99H90.26L86.3314 86.4872H86.2007L82.2802 99ZM81.7003 92.4169H90.7827V95.4879H81.7003V92.4169Z" fill="#002EFF"/>
</svg>
