<svg width="121" height="121" viewBox="0 0 121 121" fill="none" xmlns="http://www.w3.org/2000/svg">
<circle cx="60" cy="61" r="60" fill="#D9D9D9"/>
<path d="M40.6909 61.5469C37.7743 61.5469 35.1831 61.0195 32.9175 59.9648C30.6519 58.9102 28.8615 57.4583 27.5464 55.6094C26.2443 53.7604 25.5672 51.638 25.5151 49.2422H34.8901C34.9683 50.7135 35.5672 51.8984 36.687 52.7969C37.8068 53.6823 39.1414 54.125 40.6909 54.125C41.9019 54.125 42.9761 53.8581 43.9136 53.3242C44.8511 52.7904 45.5868 52.0417 46.1206 51.0781C46.6545 50.1016 46.9149 48.9818 46.9019 47.7187C46.9149 46.4297 46.6479 45.3034 46.1011 44.3398C45.5672 43.3763 44.825 42.6276 43.8745 42.0938C42.937 41.5469 41.8563 41.2734 40.6323 41.2734C39.4735 41.2604 38.3732 41.5143 37.3315 42.0352C36.3029 42.556 35.5216 43.2656 34.9878 44.1641L26.4526 42.5625L28.1909 21H53.855V28.793H36.1401L35.2222 38.2266H35.4565C36.1206 37.1198 37.1883 36.2083 38.6597 35.4922C40.144 34.763 41.8302 34.3984 43.7183 34.3984C46.1141 34.3984 48.2495 34.9583 50.1245 36.0781C52.0125 37.1849 53.4969 38.7214 54.5776 40.6875C55.6714 42.6536 56.2183 44.9062 56.2183 47.4453C56.2183 50.1927 55.5672 52.6276 54.2651 54.75C52.9761 56.8724 51.1662 58.5391 48.8355 59.75C46.5177 60.9479 43.8029 61.5469 40.6909 61.5469ZM78.0688 61.9766C74.5793 61.9766 71.5715 61.1497 69.0454 59.4961C66.5194 57.8294 64.5728 55.4401 63.2056 52.3281C61.8384 49.2031 61.1613 45.4466 61.1743 41.0586C61.1873 36.6706 61.8709 32.9466 63.2251 29.8867C64.5923 26.8138 66.5324 24.4766 69.0454 22.875C71.5715 21.2604 74.5793 20.4531 78.0688 20.4531C81.5584 20.4531 84.5662 21.2604 87.0923 22.875C89.6313 24.4766 91.5845 26.8138 92.9517 29.8867C94.3188 32.9596 94.9959 36.6836 94.9829 41.0586C94.9829 45.4596 94.2993 49.2227 92.9321 52.3477C91.5649 55.4727 89.6183 57.862 87.0923 59.5156C84.5793 61.1562 81.5715 61.9766 78.0688 61.9766ZM78.0688 54.0664C80.1522 54.0664 81.8384 53.0052 83.1274 50.8828C84.4165 48.7474 85.0545 45.4727 85.0415 41.0586C85.0415 38.168 84.7485 35.7852 84.1626 33.9102C83.5767 32.0221 82.7629 30.6159 81.7212 29.6914C80.6795 28.7669 79.4621 28.3047 78.0688 28.3047C75.9985 28.3047 74.3254 29.3529 73.0493 31.4492C71.7733 33.5326 71.1287 36.7357 71.1157 41.0586C71.1027 43.9883 71.3826 46.4167 71.9556 48.3437C72.5415 50.2708 73.3618 51.7096 74.4165 52.6602C75.4712 53.5977 76.6886 54.0664 78.0688 54.0664ZM26.1258 72.2727H31.1326L35.3797 82.6293H35.5758L39.8229 72.2727H44.8297V89H40.8929V78.7251H40.754L36.7356 88.8938H34.2199L30.2015 78.668H30.0626V89H26.1258V72.2727ZM47.3514 89V72.2727H59.0148V75.5561H51.3944V78.9865H58.4185V82.2781H51.3944V85.7166H59.0148V89H47.3514ZM72.524 77.7369C72.4314 77.3938 72.2953 77.0916 72.1156 76.8303C71.9359 76.5634 71.7154 76.3375 71.4541 76.1523C71.1927 75.9672 70.8932 75.8284 70.5556 75.7358C70.218 75.6378 69.8478 75.5888 69.4448 75.5888C68.6335 75.5888 67.9311 75.7848 67.3376 76.1768C66.7495 76.5689 66.2948 77.1406 65.9736 77.892C65.6523 78.638 65.4917 79.5446 65.4917 80.6119C65.4917 81.6845 65.6469 82.5993 65.9573 83.3562C66.2676 84.113 66.7168 84.6902 67.3049 85.0877C67.893 85.4852 68.6063 85.6839 69.4448 85.6839C70.1854 85.6839 70.8115 85.5642 71.3234 85.3246C71.8407 85.0795 72.2327 84.7338 72.4995 84.2873C72.7663 83.8408 72.8997 83.3153 72.8997 82.7109L73.6511 82.8008H69.5837V79.8523H76.7957V82.0657C76.7957 83.5631 76.4771 84.8454 75.8401 85.9126C75.2084 86.9799 74.3372 87.7994 73.2264 88.3711C72.1211 88.9428 70.8497 89.2287 69.4122 89.2287C67.8167 89.2287 66.4146 88.8829 65.2058 88.1914C63.997 87.4999 63.055 86.5143 62.3798 85.2347C61.7046 83.9497 61.3671 82.4251 61.3671 80.6609C61.3671 79.2887 61.5712 78.0717 61.9796 77.0099C62.388 75.9427 62.957 75.0388 63.6867 74.2983C64.4217 73.5578 65.2712 72.9969 66.235 72.6158C67.2042 72.2346 68.2469 72.044 69.3631 72.044C70.3324 72.044 71.2335 72.1829 72.0666 72.4606C72.9052 72.7383 73.6457 73.1303 74.2882 73.6367C74.9362 74.1431 75.4616 74.7448 75.8646 75.4418C76.2675 76.1387 76.518 76.9038 76.616 77.7369H72.524ZM82.2802 89H77.9351L83.5789 72.2727H88.9613L94.6052 89H90.26L86.3314 76.4872H86.2007L82.2802 89ZM81.7003 82.4169H90.7827V85.4879H81.7003V82.4169Z" fill="#002EFF"/>
</svg>
