<svg width="121" height="121" viewBox="0 0 121 121" fill="none" xmlns="http://www.w3.org/2000/svg">
<circle cx="60" cy="61" r="60" fill="#D9D9D9"/>
<path d="M21.9868 67.5469C19.7993 67.5469 17.703 67.1953 15.6978 66.4922C13.6925 65.776 11.9087 64.6432 10.3462 63.0938C8.78369 61.5312 7.55322 59.487 6.65479 56.9609C5.75635 54.4219 5.31364 51.3294 5.32666 47.6836C5.33968 44.3893 5.74333 41.4336 6.5376 38.8164C7.33187 36.1862 8.46468 33.9531 9.93604 32.1172C11.4204 30.2812 13.1912 28.8815 15.2485 27.918C17.3188 26.9414 19.63 26.4531 22.1821 26.4531C24.9816 26.4531 27.4491 27 29.5845 28.0937C31.7329 29.1745 33.4517 30.6328 34.7407 32.4687C36.0298 34.2917 36.7915 36.3229 37.0259 38.5625H27.5142C27.2277 37.2995 26.5962 36.3424 25.6196 35.6914C24.6561 35.0273 23.5103 34.6953 22.1821 34.6953C19.7342 34.6953 17.9048 35.7565 16.6938 37.8789C15.4959 40.0013 14.884 42.8398 14.8579 46.3945H15.1118C15.6587 45.1966 16.4465 44.168 17.4751 43.3086C18.5037 42.4492 19.6821 41.7917 21.0103 41.3359C22.3514 40.8672 23.7707 40.6328 25.2681 40.6328C27.6639 40.6328 29.7798 41.1862 31.6157 42.293C33.4517 43.3997 34.8905 44.9167 35.9321 46.8437C36.9738 48.7578 37.4881 50.9518 37.4751 53.4258C37.4881 56.2122 36.8371 58.6732 35.522 60.8086C34.2069 62.931 32.384 64.5846 30.0532 65.7695C27.7355 66.9544 25.0467 67.5469 21.9868 67.5469ZM21.9282 60.125C23.1131 60.125 24.1743 59.8451 25.1118 59.2852C26.0493 58.7253 26.785 57.9635 27.3188 57C27.8527 56.0365 28.1131 54.9492 28.1001 53.7383C28.1131 52.5143 27.8527 51.4271 27.3188 50.4766C26.798 49.526 26.0688 48.7708 25.1313 48.2109C24.2069 47.651 23.1457 47.3711 21.9478 47.3711C21.0754 47.3711 20.2616 47.5339 19.5063 47.8594C18.7511 48.1849 18.0936 48.6406 17.5337 49.2266C16.9868 49.7995 16.5571 50.4766 16.2446 51.2578C15.9321 52.026 15.7694 52.8594 15.7563 53.7578C15.7694 54.9427 16.0428 56.0169 16.5767 56.9805C17.1105 57.944 17.8397 58.7122 18.7642 59.2852C19.6886 59.8451 20.7433 60.125 21.9282 60.125ZM59.5015 67.9766C56.0119 67.9766 53.0041 67.1497 50.478 65.4961C47.952 63.8294 46.0054 61.4401 44.6382 58.3281C43.271 55.2031 42.5939 51.4466 42.6069 47.0586C42.62 42.6706 43.3035 38.9466 44.6577 35.8867C46.0249 32.8138 47.965 30.4766 50.478 28.875C53.0041 27.2604 56.0119 26.4531 59.5015 26.4531C62.991 26.4531 65.9989 27.2604 68.5249 28.875C71.064 30.4766 73.0171 32.8138 74.3843 35.8867C75.7515 38.9596 76.4285 42.6836 76.4155 47.0586C76.4155 51.4596 75.7319 55.2227 74.3647 58.3477C72.9976 61.4727 71.0509 63.862 68.5249 65.5156C66.0119 67.1562 63.0041 67.9766 59.5015 67.9766ZM59.5015 60.0664C61.5848 60.0664 63.271 59.0052 64.5601 56.8828C65.8491 54.7474 66.4871 51.4727 66.4741 47.0586C66.4741 44.168 66.1812 41.7852 65.5952 39.9102C65.0093 38.0221 64.1955 36.6159 63.1538 35.6914C62.1121 34.7669 60.8947 34.3047 59.5015 34.3047C57.4312 34.3047 55.758 35.3529 54.4819 37.4492C53.2059 39.5326 52.5614 42.7357 52.5483 47.0586C52.5353 49.9883 52.8153 52.4167 53.3882 54.3437C53.9741 56.2708 54.7944 57.7096 55.8491 58.6602C56.9038 59.5977 58.1213 60.0664 59.5015 60.0664ZM98.4956 67.9766C95.006 67.9766 91.9982 67.1497 89.4722 65.4961C86.9461 63.8294 84.9995 61.4401 83.6323 58.3281C82.2651 55.2031 81.5881 51.4466 81.6011 47.0586C81.6141 42.6706 82.2977 38.9466 83.6519 35.8867C85.019 32.8138 86.9591 30.4766 89.4722 28.875C91.9982 27.2604 95.006 26.4531 98.4956 26.4531C101.985 26.4531 104.993 27.2604 107.519 28.875C110.058 30.4766 112.011 32.8138 113.378 35.8867C114.746 38.9596 115.423 42.6836 115.41 47.0586C115.41 51.4596 114.726 55.2227 113.359 58.3477C111.992 61.4727 110.045 63.862 107.519 65.5156C105.006 67.1562 101.998 67.9766 98.4956 67.9766ZM98.4956 60.0664C100.579 60.0664 102.265 59.0052 103.554 56.8828C104.843 54.7474 105.481 51.4727 105.468 47.0586C105.468 44.168 105.175 41.7852 104.589 39.9102C104.003 38.0221 103.19 36.6159 102.148 35.6914C101.106 34.7669 99.8888 34.3047 98.4956 34.3047C96.4253 34.3047 94.7521 35.3529 93.4761 37.4492C92.2 39.5326 91.5555 42.7357 91.5425 47.0586C91.5295 49.9883 91.8094 52.4167 92.3823 54.3437C92.9683 56.2708 93.7886 57.7096 94.8433 58.6602C95.8979 59.5977 97.1154 60.0664 98.4956 60.0664ZM26.6258 78.2727H31.6326L35.8797 88.6293H36.0758L40.3229 78.2727H45.3297V95H41.3929V84.7251H41.254L37.2356 94.8938H34.7199L30.7015 84.668H30.5626V95H26.6258V78.2727ZM47.8514 95V78.2727H59.5148V81.5561H51.8944V84.9865H58.9185V88.2781H51.8944V91.7166H59.5148V95H47.8514ZM73.024 83.7369C72.9314 83.3938 72.7953 83.0916 72.6156 82.8303C72.4359 82.5634 72.2154 82.3375 71.9541 82.1523C71.6927 81.9672 71.3932 81.8284 71.0556 81.7358C70.718 81.6378 70.3478 81.5888 69.9448 81.5888C69.1335 81.5888 68.4311 81.7848 67.8376 82.1768C67.2495 82.5689 66.7948 83.1406 66.4736 83.892C66.1523 84.638 65.9917 85.5446 65.9917 86.6119C65.9917 87.6845 66.1469 88.5993 66.4573 89.3562C66.7676 90.113 67.2168 90.6902 67.8049 91.0877C68.393 91.4852 69.1063 91.6839 69.9448 91.6839C70.6854 91.6839 71.3115 91.5642 71.8234 91.3246C72.3407 91.0795 72.7327 90.7338 72.9995 90.2873C73.2663 89.8408 73.3997 89.3153 73.3997 88.7109L74.1511 88.8008H70.0837V85.8523H77.2957V88.0657C77.2957 89.5631 76.9771 90.8454 76.3401 91.9126C75.7084 92.9799 74.8372 93.7994 73.7264 94.3711C72.6211 94.9428 71.3497 95.2287 69.9122 95.2287C68.3167 95.2287 66.9146 94.8829 65.7058 94.1914C64.497 93.4999 63.555 92.5143 62.8798 91.2347C62.2046 89.9497 61.8671 88.4251 61.8671 86.6609C61.8671 85.2887 62.0712 84.0717 62.4796 83.0099C62.888 81.9427 63.457 81.0388 64.1867 80.2983C64.9217 79.5578 65.7712 78.9969 66.735 78.6158C67.7042 78.2346 68.7469 78.044 69.8631 78.044C70.8324 78.044 71.7335 78.1829 72.5666 78.4606C73.4052 78.7383 74.1457 79.1303 74.7882 79.6367C75.4362 80.1431 75.9616 80.7448 76.3646 81.4418C76.7675 82.1387 77.018 82.9038 77.116 83.7369H73.024ZM82.7802 95H78.4351L84.0789 78.2727H89.4613L95.1052 95H90.76L86.8314 82.4872H86.7007L82.7802 95ZM82.2003 88.4169H91.2827V91.4879H82.2003V88.4169Z" fill="#002EFF"/>
</svg>
